<svg width="24" height="24" viewBox="0 0 24 24" fill="none" xmlns="http://www.w3.org/2000/svg">
<path fill-rule="evenodd" clip-rule="evenodd" d="M8.21436 5.35168C7.31706 6.04237 6.74952 7.07077 6.74952 8.5C6.74952 10.5921 5.99653 12.8786 5.25918 14.6299C4.83616 15.6347 5.58379 16.75 6.5319 16.75H17.4671C18.4152 16.75 19.1629 15.6347 18.7399 14.6299C18.0025 12.8786 17.2495 10.5921 17.2495 8.5C17.2495 7.07077 16.682 6.04237 15.7847 5.35168C14.8642 4.64311 13.5398 4.25 11.9995 4.25C10.4592 4.25 9.13487 4.64311 8.21436 5.35168ZM15.7495 18.25H17.4671C19.6282 18.25 20.9058 15.9087 20.1223 14.0479C19.4066 12.348 18.7495 10.2862 18.7495 8.5C18.7495 6.61553 17.9739 5.14392 16.6996 4.16304C15.4486 3.20004 13.7729 2.75 11.9995 2.75C10.2261 2.75 8.55046 3.20004 7.2994 4.16304C6.02513 5.14392 5.24952 6.61553 5.24952 8.5C5.24952 10.2862 4.59239 12.348 3.87671 14.0479C3.09327 15.9087 4.37083 18.25 6.5319 18.25H8.24953V18.5C8.24953 19.556 8.68935 20.4027 9.42073 20.9656C10.1289 21.5107 11.0546 21.75 11.9995 21.75C12.9445 21.75 13.8702 21.5107 14.5783 20.9656C15.3097 20.4027 15.7495 19.556 15.7495 18.5V18.25ZM14.2495 18.25H9.74953V18.5C9.74953 19.1008 9.98128 19.5042 10.3357 19.777C10.7133 20.0677 11.2876 20.25 11.9995 20.25C12.7114 20.25 13.2857 20.0677 13.6634 19.777C14.0178 19.5042 14.2495 19.1008 14.2495 18.5V18.25Z" fill="white"/>
</svg>
