<svg width="24" height="24" viewBox="0 0 24 24" fill="none" xmlns="http://www.w3.org/2000/svg">
                  <path fill-rule="evenodd" clip-rule="evenodd" d="M12.91 4.37995C12.3462 4.03363 11.6539 4.03363 11.0901 4.37995C10.0136 5.0412 8.4349 6.12578 7.03036 7.53033C5.50324 9.05745 4.84052 10.2015 4.53259 11.2707C4.24443 12.2712 4.24656 13.2533 4.24944 14.5812C4.24973 14.7171 4.25003 14.8565 4.25003 15C4.25003 16.3711 4.35746 17.5261 4.47073 18.3625C4.53844 18.8625 4.98 19.25 5.56159 19.25H7.00003C7.69039 19.25 8.25003 18.6904 8.25003 18V16C8.25003 15.0054 8.64512 14.0516 9.34838 13.3483C10.0516 12.6451 11.0055 12.25 12 12.25C12.9946 12.25 13.9484 12.6451 14.6517 13.3483C15.3549 14.0516 15.75 15.0054 15.75 16V18C15.75 18.6904 16.3097 19.25 17 19.25H18.4385C19.0201 19.25 19.4616 18.8625 19.5293 18.3625C19.6426 17.5261 19.75 16.3711 19.75 15C19.75 14.8566 19.7503 14.7171 19.7506 14.5813C19.7535 13.2534 19.7556 12.2712 19.4675 11.2707C19.1595 10.2015 18.4968 9.05744 16.9697 7.53033C15.5652 6.12578 13.9865 5.0412 12.91 4.37995ZM10.305 3.10181C11.3504 2.45968 12.6496 2.45968 13.695 3.10181C14.8265 3.79678 16.5122 4.95152 18.0304 6.46967C19.6716 8.11093 20.5089 9.46686 20.9089 10.8556C21.2596 12.0734 21.2555 13.2753 21.251 14.5617C21.2505 14.7067 21.25 14.8527 21.25 15C21.25 16.4485 21.1366 17.6715 21.0158 18.5638C20.8371 19.8827 19.6924 20.75 18.4385 20.75H17C15.4812 20.75 14.25 19.5188 14.25 18V16C14.25 15.4033 14.013 14.831 13.591 14.409C13.1691 13.9871 12.5968 13.75 12 13.75C11.4033 13.75 10.831 13.9871 10.409 14.409C9.98708 14.831 9.75003 15.4033 9.75003 16V18C9.75003 19.5188 8.51881 20.75 7.00003 20.75H5.56159C4.3077 20.75 3.16292 19.8827 2.9843 18.5638C2.86345 17.6715 2.75003 16.4485 2.75003 15C2.75003 14.8527 2.74953 14.7066 2.74903 14.5617C2.74459 13.2752 2.74044 12.0734 3.09118 10.8556C3.49114 9.46686 4.32843 8.11094 5.9697 6.46967C7.48785 4.95152 9.17358 3.79678 10.305 3.10181Z" fill="white"/>
                  </svg>