<svg width="18" height="19" viewBox="0 0 18 19" fill="none" xmlns="http://www.w3.org/2000/svg">
<path fill-rule="evenodd" clip-rule="evenodd" d="M6.66455 0.658164C7.40822 0.301357 8.30708 0.25 9 0.25C9.69292 0.25 10.5918 0.301357 11.3354 0.658164C11.7226 0.843916 12.0881 1.12168 12.353 1.53183C12.6188 1.94351 12.75 2.43735 12.75 3V3.40851C13.0929 3.4422 13.5312 3.48866 13.9827 3.54555C14.4755 3.60767 14.997 3.68382 15.4303 3.77172C15.6459 3.81545 15.8547 3.86506 16.0337 3.92182C16.1784 3.96774 16.4208 4.05214 16.605 4.21335C16.7457 4.33644 16.8396 4.48576 16.9017 4.60194C16.9684 4.7267 17.0253 4.86524 17.0748 5.00676C17.1739 5.28997 17.2619 5.63887 17.3389 6.02868C17.4937 6.81158 17.6175 7.8261 17.6873 8.95364C17.7275 9.60188 17.75 10.2912 17.75 11C17.75 12.5879 17.6368 14.0835 17.464 15.2425C17.3779 15.8203 17.2747 16.3302 17.1577 16.7327C17.0994 16.9333 17.0333 17.1227 16.9571 17.2868C16.8887 17.4341 16.7797 17.6338 16.605 17.7867C16.4376 17.9331 16.2275 18.0197 16.0751 18.0739C15.9012 18.1358 15.697 18.1906 15.4754 18.2399C15.0305 18.3389 14.4605 18.4276 13.8073 18.5021C12.4978 18.6516 10.8025 18.75 9 18.75C7.19753 18.75 5.50222 18.6516 4.19273 18.5021C3.53951 18.4276 2.9695 18.3389 2.52464 18.2399C2.30301 18.1906 2.09882 18.1358 1.9249 18.0739C1.77249 18.0197 1.56235 17.9331 1.39501 17.7867C1.22027 17.6338 1.11134 17.4341 1.04289 17.2868C0.966663 17.1227 0.900565 16.9333 0.842286 16.7327C0.725333 16.3302 0.622098 15.8203 0.535974 15.2425C0.363201 14.0835 0.25 12.5879 0.25 11C0.25 10.2912 0.272558 9.60187 0.312707 8.95364C0.382542 7.8261 0.506308 6.81158 0.661074 6.02868C0.738133 5.63887 0.826071 5.28997 0.925167 5.00677C0.974688 4.86524 1.03161 4.7267 1.09828 4.60194C1.16036 4.48576 1.25433 4.33644 1.39501 4.21335C1.57925 4.05214 1.8216 3.96774 1.96634 3.92182C2.14526 3.86506 2.35409 3.81545 2.56965 3.77172C3.00302 3.68382 3.52447 3.60767 4.01733 3.54555C4.46875 3.48866 4.90709 3.4422 5.25 3.40851V3C5.25 2.43735 5.38123 1.94351 5.64705 1.53183C5.91188 1.12168 6.27741 0.843916 6.66455 0.658164ZM6.75 3.30113C7.46452 3.26834 8.22194 3.25 9 3.25C9.77806 3.25 10.5355 3.26834 11.25 3.30113V3C11.25 2.67513 11.1766 2.47521 11.0928 2.34548C11.0081 2.21423 10.8791 2.10293 10.6866 2.01056C10.2709 1.81112 9.66978 1.75 9 1.75C8.33022 1.75 7.72909 1.81112 7.31343 2.01056C7.12091 2.10293 6.99194 2.21423 6.90719 2.34548C6.82343 2.47521 6.75 2.67513 6.75 3V3.30113ZM11.9457 4.84128C11.0419 4.78383 10.0406 4.75 9 4.75C7.9594 4.75 6.95808 4.78383 6.05431 4.84128L6.0509 4.84156L6.02137 4.84401L5.90692 4.85383C5.80767 4.86251 5.66493 4.87538 5.49208 4.89204C5.14582 4.9254 4.68136 4.97373 4.20489 5.03378C3.72553 5.09419 3.24698 5.16488 2.86785 5.24178C2.67716 5.28046 2.52661 5.31775 2.41994 5.35159C2.4117 5.35421 2.40404 5.35671 2.39694 5.35908C2.38113 5.39444 2.36221 5.44153 2.341 5.50217C2.2739 5.69393 2.20217 5.96764 2.1326 6.31957C1.99469 7.01719 1.87777 7.95762 1.81069 9.03265C1.80713 9.24386 1.89878 9.47837 2.20703 9.74789C2.53183 10.0319 3.04769 10.3049 3.74593 10.5389C4.95728 10.9447 6.56554 11.1832 8.25 11.2379V10C8.25 9.58579 8.58579 9.25 9 9.25C9.41421 9.25 9.75 9.58579 9.75 10V11.2379C11.4345 11.1832 13.0427 10.9447 14.2541 10.5389C14.9523 10.3049 15.4682 10.0319 15.793 9.74789C16.1012 9.47838 16.1929 9.24387 16.1893 9.03265C16.1222 7.95762 16.0053 7.01719 15.8674 6.31958C15.7978 5.96765 15.7261 5.69393 15.659 5.50218C15.6378 5.44154 15.6189 5.39444 15.6031 5.35908C15.596 5.35671 15.5883 5.35421 15.5801 5.35159C15.4734 5.31775 15.3228 5.28046 15.1322 5.24178C14.753 5.16488 14.2745 5.09419 13.7951 5.03378C13.3186 4.97373 12.8542 4.9254 12.5079 4.89204C12.3351 4.87538 12.1923 4.86251 12.0931 4.85383L11.9786 4.84401L11.9491 4.84156L11.9457 4.84128ZM15.5662 5.28742C15.5662 5.28737 15.5669 5.2883 15.5682 5.29033C15.5668 5.28849 15.5662 5.28747 15.5662 5.28742ZM16.2489 11.2689C15.8044 11.5479 15.2849 11.7754 14.7306 11.9611C13.3305 12.4303 11.5505 12.6838 9.75 12.7386V14C9.75 14.4142 9.41421 14.75 9 14.75C8.58579 14.75 8.25 14.4142 8.25 14V12.7386C6.44949 12.6838 4.66954 12.4303 3.2694 11.9611C2.71508 11.7754 2.19559 11.5479 1.75113 11.2688C1.76306 12.6899 1.86851 14.0079 2.01958 15.0214C2.10012 15.5617 2.19133 15.9997 2.28271 16.3142C2.32781 16.4694 2.36871 16.5797 2.40157 16.6511C2.40938 16.6541 2.41801 16.6573 2.42753 16.6607C2.52271 16.6945 2.66227 16.7339 2.85036 16.7757C3.22494 16.859 3.73827 16.9405 4.36282 17.0118C5.60889 17.154 7.24691 17.25 9 17.25C10.7531 17.25 12.3911 17.154 13.6372 17.0118C14.2617 16.9405 14.7751 16.859 15.1496 16.7757C15.3377 16.7339 15.4773 16.6945 15.5725 16.6607C15.582 16.6573 15.5906 16.6541 15.5984 16.6511C15.6313 16.5797 15.6722 16.4694 15.7173 16.3142C15.8087 15.9997 15.8999 15.5617 15.9804 15.0214C16.1315 14.0079 16.2369 12.6899 16.2489 11.2689ZM2.43379 5.28742C2.43381 5.28747 2.43315 5.28852 2.43177 5.29043C2.43309 5.28833 2.43378 5.28738 2.43379 5.28742Z" fill="white"/>
</svg>
