<svg width="28" height="28" viewBox="0 0 28 28" fill="none" xmlns="http://www.w3.org/2000/svg">
	<path d="M0 14C0 6.26801 6.26801 0 14 0C21.732 0 28 6.26801 28 14C28 21.732 21.732 28 14 28C6.26801 28 0 21.732 0 14Z" fill="#8340E7" />
	<path d="M11 11.5C11 12.8807 10.5523 14 10 14C9.44772 14 9 12.8807 9 11.5C9 10.1193 9.44772 9 10 9C10.5523 9 11 10.1193 11 11.5Z" fill="#060026" />
	<path d="M19 11.5C19 12.8807 18.5523 14 18 14C17.4477 14 17 12.8807 17 11.5C17 10.1193 17.4477 9 18 9C18.5523 9 19 10.1193 19 11.5Z" fill="#060026" />
</svg>
