<svg width="19" height="19" viewBox="0 0 19 19" fill="none" xmlns="http://www.w3.org/2000/svg">
	<path fill-rule="evenodd" clip-rule="evenodd" d="M13.05 1.75C12.3069 1.75 11.6024 2.02882 11.0896 2.51249L3.05236 10.0926C2.2128 10.8844 1.75 11.9486 1.75 13.0483C1.75 14.148 2.2128 15.2123 3.05236 16.0041C3.89341 16.7973 5.04302 17.25 6.25028 17.25C7.45754 17.25 8.60715 16.7973 9.4482 16.0041L17.4854 8.42398C17.7868 8.13978 18.2614 8.15367 18.5456 8.45501C18.8298 8.75634 18.8159 9.23102 18.5146 9.51521L10.4774 17.0953C9.34919 18.1593 7.82794 18.75 6.25028 18.75C4.67262 18.75 3.15137 18.1593 2.02318 17.0953C0.893507 16.0299 0.25 14.5751 0.25 13.0483C0.25 11.5215 0.893507 10.0668 2.02318 9.00135L10.0604 1.42125C10.8604 0.666772 11.9365 0.25 13.05 0.25C14.1635 0.25 15.2396 0.666772 16.0396 1.42125C16.8411 2.17714 17.3002 3.21205 17.3002 4.30111C17.3002 5.39018 16.8411 6.42509 16.0396 7.18097L7.99362 14.7611C7.99353 14.7612 7.99372 14.761 7.99362 14.7611C7.52188 15.2058 6.89076 15.4489 6.24154 15.4489C5.59218 15.4489 4.96122 15.206 4.48945 14.7611C4.01618 14.3147 3.74144 13.6996 3.74144 13.0483C3.74144 12.397 4.01618 11.7819 4.48945 11.3356L11.9148 4.34081C12.2163 4.05679 12.6909 4.07097 12.975 4.37247C13.259 4.67397 13.2448 5.14864 12.9433 5.43266L5.51862 12.4268C5.33547 12.5996 5.24144 12.8241 5.24144 13.0483C5.24144 13.2725 5.33547 13.4971 5.51862 13.6698C5.70326 13.844 5.96258 13.9489 6.24154 13.9489C6.52049 13.9489 6.77981 13.844 6.96445 13.6698L15.0104 6.08974C15.5218 5.60747 15.8002 4.96307 15.8002 4.30111C15.8002 3.63916 15.5218 2.99476 15.0104 2.51249C14.4976 2.02882 13.7931 1.75 13.05 1.75Z" fill="white" />
</svg>
