<svg width="25" height="19" viewBox="0 0 25 19" fill="none" xmlns="http://www.w3.org/2000/svg">
   <path d="M3.125 5.33332L4.62805 14.3517C4.96291 16.3608 6.7012 17.8333 8.73803 17.8333H16.262C18.2988 17.8333 20.0371 16.3608 20.3719 14.3517L21.875 5.33332M3.125 5.33332L7.03748 8.53445C8.00388 9.32514 9.44399 9.09396 10.1144 8.04053L12.5 4.29166M3.125 5.33332C3.98794 5.33332 4.6875 4.63377 4.6875 3.77082C4.6875 2.90788 3.98794 2.20832 3.125 2.20832C2.26206 2.20832 1.5625 2.90788 1.5625 3.77082C1.5625 4.63377 2.26206 5.33332 3.125 5.33332ZM21.875 5.33332L17.9625 8.53445C16.9961 9.32514 15.556 9.09396 14.8856 8.04052L12.5 4.29166M21.875 5.33332C22.7379 5.33332 23.4375 4.63377 23.4375 3.77082C23.4375 2.90788 22.7379 2.20832 21.875 2.20832C21.0121 2.20832 20.3125 2.90788 20.3125 3.77082C20.3125 4.63377 21.0121 5.33332 21.875 5.33332ZM12.5 4.29166C13.3629 4.29166 14.0625 3.5921 14.0625 2.72916C14.0625 1.86621 13.3629 1.16666 12.5 1.16666C11.6371 1.16666 10.9375 1.86621 10.9375 2.72916C10.9375 3.5921 11.6371 4.29166 12.5 4.29166Z" stroke="#873BFF" stroke-width="1.5" stroke-linecap="round" stroke-linejoin="round"/>
</svg> 