<svg width="21" height="21" viewBox="0 0 21 21" fill="none" xmlns="http://www.w3.org/2000/svg">
   <path fill-rule="evenodd" clip-rule="evenodd" d="M10.5 1.875C5.73654 1.875 1.875 5.73654 1.875 10.5C1.875 15.2635 5.73654 19.125 10.5 19.125C15.2635 19.125 19.125 15.2635 19.125 10.5C19.125 5.73654 15.2635 1.875 10.5 1.875ZM0.375 10.5C0.375 4.90812 4.90812 0.375 10.5 0.375C16.0919 0.375 20.625 4.90812 20.625 10.5C20.625 16.0919 16.0919 20.625 10.5 20.625C4.90812 20.625 0.375 16.0919 0.375 10.5ZM10.5 3.5C10.9142 3.5 11.25 3.83579 11.25 4.25V5.58333H13.625C14.0392 5.58333 14.375 5.91912 14.375 6.33333C14.375 6.74755 14.0392 7.08333 13.625 7.08333H9.45833C9.23113 7.08333 8.87363 7.15766 8.59448 7.35865C8.35357 7.5321 8.125 7.82777 8.125 8.41667C8.125 9.00556 8.35357 9.30123 8.59448 9.47468C8.87363 9.67567 9.23113 9.75 9.45833 9.75H11.5417C12.0089 9.75 12.6931 9.884 13.282 10.308C13.9091 10.7596 14.375 11.5056 14.375 12.5833C14.375 13.6611 13.9091 14.4071 13.282 14.8587C12.6931 15.2827 12.0089 15.4167 11.5417 15.4167H11.25V16.75C11.25 17.1642 10.9142 17.5 10.5 17.5C10.0858 17.5 9.75 17.1642 9.75 16.75V15.4167H7.375C6.96079 15.4167 6.625 15.0809 6.625 14.6667C6.625 14.2525 6.96079 13.9167 7.375 13.9167H11.5417C11.7689 13.9167 12.1264 13.8423 12.4055 13.6413C12.6464 13.4679 12.875 13.1722 12.875 12.5833C12.875 11.9944 12.6464 11.6988 12.4055 11.5253C12.1264 11.3243 11.7689 11.25 11.5417 11.25H9.45833C8.99109 11.25 8.30693 11.116 7.71802 10.692C7.09087 10.2404 6.625 9.49444 6.625 8.41667C6.625 7.33889 7.09087 6.5929 7.71802 6.14135C8.30693 5.71734 8.99109 5.58333 9.45833 5.58333H9.75V4.25C9.75 3.83579 10.0858 3.5 10.5 3.5Z" fill="#EE80B1"/>
</svg>
