<svg aria-hidden="true" xmlns="http://www.w3.org/2000/svg" xmlns:xlink="http://www.w3.org/1999/xlink"><symbol viewBox="0 0 24 24" id="3users" xmlns="http://www.w3.org/2000/svg">
<path fill-rule="evenodd" clip-rule="evenodd" d="M3.25 8C3.25 5.92893 4.92893 4.25 7 4.25C7.41421 4.25 7.75 4.58579 7.75 5C7.75 5.41421 7.41421 5.75 7 5.75C5.75736 5.75 4.75 6.75736 4.75 8C4.75 9.24264 5.75736 10.25 7 10.25C7.41421 10.25 7.75 10.5858 7.75 11C7.75 11.4142 7.41421 11.75 7 11.75C4.92893 11.75 3.25 10.0711 3.25 8ZM12 5.75C10.7574 5.75 9.75 6.75736 9.75 8C9.75 9.24264 10.7574 10.25 12 10.25C13.2426 10.25 14.25 9.24264 14.25 8C14.25 6.75736 13.2426 5.75 12 5.75ZM8.25 8C8.25 5.92893 9.92893 4.25 12 4.25C14.0711 4.25 15.75 5.92893 15.75 8C15.75 10.0711 14.0711 11.75 12 11.75C9.92893 11.75 8.25 10.0711 8.25 8ZM16.25 5C16.25 4.58579 16.5858 4.25 17 4.25C19.0711 4.25 20.75 5.92893 20.75 8C20.75 10.0711 19.0711 11.75 17 11.75C16.5858 11.75 16.25 11.4142 16.25 11C16.25 10.5858 16.5858 10.25 17 10.25C18.2426 10.25 19.25 9.24264 19.25 8C19.25 6.75736 18.2426 5.75 17 5.75C16.5858 5.75 16.25 5.41421 16.25 5ZM2.68807 15.7313C2.05865 16.3291 1.75 17.0205 1.75 17.5C1.75 17.9142 2.08579 18.25 2.5 18.25H3C3.41421 18.25 3.75 18.5858 3.75 19C3.75 19.4142 3.41421 19.75 3 19.75H2.5C1.25736 19.75 0.25 18.7426 0.25 17.5C0.25 16.4795 0.836778 15.4209 1.65508 14.6437C2.48951 13.8512 3.66684 13.25 5 13.25C5.41421 13.25 5.75 13.5858 5.75 14C5.75 14.4142 5.41421 14.75 5 14.75C4.12402 14.75 3.30135 15.1488 2.68807 15.7313ZM7.53959 14.1417C8.80623 13.5084 10.4344 13.25 12 13.25C13.5656 13.25 15.1938 13.5084 16.4604 14.1417C17.7483 14.7856 18.75 15.8766 18.75 17.5C18.75 18.7426 17.7426 19.75 16.5 19.75H7.5C6.25736 19.75 5.25 18.7426 5.25 17.5C5.25 15.8766 6.25169 14.7856 7.53959 14.1417ZM8.21041 15.4833C7.24831 15.9644 6.75 16.6234 6.75 17.5C6.75 17.9142 7.08579 18.25 7.5 18.25H16.5C16.9142 18.25 17.25 17.9142 17.25 17.5C17.25 16.6234 16.7517 15.9644 15.7896 15.4833C14.8062 14.9916 13.4344 14.75 12 14.75C10.5656 14.75 9.19377 14.9916 8.21041 15.4833ZM18.25 14C18.25 13.5858 18.5858 13.25 19 13.25C20.3332 13.25 21.5105 13.8512 22.3449 14.6437C23.1632 15.4209 23.75 16.4795 23.75 17.5C23.75 18.7426 22.7426 19.75 21.5 19.75H21C20.5858 19.75 20.25 19.4142 20.25 19C20.25 18.5858 20.5858 18.25 21 18.25H21.5C21.9142 18.25 22.25 17.9142 22.25 17.5C22.25 17.0205 21.9413 16.3291 21.3119 15.7313C20.6986 15.1488 19.876 14.75 19 14.75C18.5858 14.75 18.25 14.4142 18.25 14Z"/>
</symbol><symbol viewBox="0 0 24 24" id="balancce" xmlns="http://www.w3.org/2000/svg">
<path fill-rule="evenodd" clip-rule="evenodd" d="M12 3.75C7.44365 3.75 3.75 7.44365 3.75 12C3.75 16.5563 7.44365 20.25 12 20.25C16.5563 20.25 20.25 16.5563 20.25 12C20.25 7.44365 16.5563 3.75 12 3.75ZM2.25 12C2.25 6.61522 6.61522 2.25 12 2.25C17.3848 2.25 21.75 6.61522 21.75 12C21.75 17.3848 17.3848 21.75 12 21.75C6.61522 21.75 2.25 17.3848 2.25 12ZM12 5.25C12.4142 5.25 12.75 5.58579 12.75 6V7.25H15C15.4142 7.25 15.75 7.58579 15.75 8C15.75 8.41421 15.4142 8.75 15 8.75H11C10.7867 8.75 10.45 8.82016 10.1882 9.00865C9.96468 9.1696 9.75 9.44444 9.75 10C9.75 10.5556 9.96468 10.8304 10.1882 10.9913C10.45 11.1798 10.7867 11.25 11 11.25H13C13.4534 11.25 14.1167 11.3798 14.6882 11.7913C15.298 12.2304 15.75 12.9556 15.75 14C15.75 15.0444 15.298 15.7696 14.6882 16.2087C14.1167 16.6202 13.4534 16.75 13 16.75H12.75V18C12.75 18.4142 12.4142 18.75 12 18.75C11.5858 18.75 11.25 18.4142 11.25 18V16.75H9C8.58579 16.75 8.25 16.4142 8.25 16C8.25 15.5858 8.58579 15.25 9 15.25H13C13.2133 15.25 13.55 15.1798 13.8118 14.9913C14.0353 14.8304 14.25 14.5556 14.25 14C14.25 13.4444 14.0353 13.1696 13.8118 13.0087C13.55 12.8202 13.2133 12.75 13 12.75H11C10.5466 12.75 9.88332 12.6202 9.31177 12.2087C8.70198 11.7696 8.25 11.0444 8.25 10C8.25 8.95556 8.70198 8.2304 9.31177 7.79135C9.88332 7.37984 10.5466 7.25 11 7.25H11.25V6C11.25 5.58579 11.5858 5.25 12 5.25Z"/>
</symbol><symbol viewBox="0 0 24 24" id="bel" xmlns="http://www.w3.org/2000/svg">
<path fill-rule="evenodd" clip-rule="evenodd" d="M8.21436 5.35168C7.31706 6.04237 6.74952 7.07077 6.74952 8.5C6.74952 10.5921 5.99653 12.8786 5.25918 14.6299C4.83616 15.6347 5.58379 16.75 6.5319 16.75H17.4671C18.4152 16.75 19.1629 15.6347 18.7399 14.6299C18.0025 12.8786 17.2495 10.5921 17.2495 8.5C17.2495 7.07077 16.682 6.04237 15.7847 5.35168C14.8642 4.64311 13.5398 4.25 11.9995 4.25C10.4592 4.25 9.13487 4.64311 8.21436 5.35168ZM15.7495 18.25H17.4671C19.6282 18.25 20.9058 15.9087 20.1223 14.0479C19.4066 12.348 18.7495 10.2862 18.7495 8.5C18.7495 6.61553 17.9739 5.14392 16.6996 4.16304C15.4486 3.20004 13.7729 2.75 11.9995 2.75C10.2261 2.75 8.55046 3.20004 7.2994 4.16304C6.02513 5.14392 5.24952 6.61553 5.24952 8.5C5.24952 10.2862 4.59239 12.348 3.87671 14.0479C3.09327 15.9087 4.37083 18.25 6.5319 18.25H8.24953V18.5C8.24953 19.556 8.68935 20.4027 9.42073 20.9656C10.1289 21.5107 11.0546 21.75 11.9995 21.75C12.9445 21.75 13.8702 21.5107 14.5783 20.9656C15.3097 20.4027 15.7495 19.556 15.7495 18.5V18.25ZM14.2495 18.25H9.74953V18.5C9.74953 19.1008 9.98128 19.5042 10.3357 19.777C10.7133 20.0677 11.2876 20.25 11.9995 20.25C12.7114 20.25 13.2857 20.0677 13.6634 19.777C14.0178 19.5042 14.2495 19.1008 14.2495 18.5V18.25Z"/>
</symbol><symbol viewBox="0 0 24 24" id="help" xmlns="http://www.w3.org/2000/svg">
<path fill-rule="evenodd" clip-rule="evenodd" d="M12 3.75C7.44365 3.75 3.75 7.44365 3.75 12C3.75 16.5563 7.44365 20.25 12 20.25C16.5563 20.25 20.25 16.5563 20.25 12C20.25 7.44365 16.5563 3.75 12 3.75ZM2.25 12C2.25 6.61522 6.61522 2.25 12 2.25C17.3848 2.25 21.75 6.61522 21.75 12C21.75 17.3848 17.3848 21.75 12 21.75C6.61522 21.75 2.25 17.3848 2.25 12ZM12 7.75C10.9698 7.75 10.1272 8.3931 9.8496 9.2349C9.71987 9.62827 9.29581 9.842 8.90243 9.71227C8.50906 9.58254 8.29533 9.15848 8.42506 8.7651C8.91201 7.28855 10.3436 6.25 12 6.25C14.0362 6.25 15.75 7.83091 15.75 9.85714C15.75 10.6574 15.5011 11.2526 15.1055 11.7235C14.7919 12.0969 14.3865 12.3821 14.0669 12.607C14.0213 12.6391 13.9775 12.6699 13.9359 12.6996C13.5696 12.9613 13.2936 13.1847 13.0938 13.4859C12.9051 13.7705 12.75 14.1797 12.75 14.8571C12.75 15.2714 12.4142 15.6071 12 15.6071C11.5858 15.6071 11.25 15.2714 11.25 14.8571C11.25 13.9275 11.4699 13.2206 11.8437 12.6569C12.2064 12.11 12.6804 11.753 13.0641 11.479C13.1144 11.443 13.1626 11.4088 13.2088 11.376C13.5456 11.1369 13.7775 10.9723 13.957 10.7587C14.1239 10.5599 14.25 10.3069 14.25 9.85714C14.25 8.72746 13.2775 7.75 12 7.75ZM12 16.2429C12.4142 16.2429 12.75 16.5786 12.75 16.9929V17C12.75 17.4142 12.4142 17.75 12 17.75C11.5858 17.75 11.25 17.4142 11.25 17V16.9929C11.25 16.5786 11.5858 16.2429 12 16.2429Z"/>
</symbol><symbol viewBox="0 0 24 24" id="home" xmlns="http://www.w3.org/2000/svg">
                  <path fill-rule="evenodd" clip-rule="evenodd" d="M12.91 4.37995C12.3462 4.03363 11.6539 4.03363 11.0901 4.37995C10.0136 5.0412 8.4349 6.12578 7.03036 7.53033C5.50324 9.05745 4.84052 10.2015 4.53259 11.2707C4.24443 12.2712 4.24656 13.2533 4.24944 14.5812C4.24973 14.7171 4.25003 14.8565 4.25003 15C4.25003 16.3711 4.35746 17.5261 4.47073 18.3625C4.53844 18.8625 4.98 19.25 5.56159 19.25H7.00003C7.69039 19.25 8.25003 18.6904 8.25003 18V16C8.25003 15.0054 8.64512 14.0516 9.34838 13.3483C10.0516 12.6451 11.0055 12.25 12 12.25C12.9946 12.25 13.9484 12.6451 14.6517 13.3483C15.3549 14.0516 15.75 15.0054 15.75 16V18C15.75 18.6904 16.3097 19.25 17 19.25H18.4385C19.0201 19.25 19.4616 18.8625 19.5293 18.3625C19.6426 17.5261 19.75 16.3711 19.75 15C19.75 14.8566 19.7503 14.7171 19.7506 14.5813C19.7535 13.2534 19.7556 12.2712 19.4675 11.2707C19.1595 10.2015 18.4968 9.05744 16.9697 7.53033C15.5652 6.12578 13.9865 5.0412 12.91 4.37995ZM10.305 3.10181C11.3504 2.45968 12.6496 2.45968 13.695 3.10181C14.8265 3.79678 16.5122 4.95152 18.0304 6.46967C19.6716 8.11093 20.5089 9.46686 20.9089 10.8556C21.2596 12.0734 21.2555 13.2753 21.251 14.5617C21.2505 14.7067 21.25 14.8527 21.25 15C21.25 16.4485 21.1366 17.6715 21.0158 18.5638C20.8371 19.8827 19.6924 20.75 18.4385 20.75H17C15.4812 20.75 14.25 19.5188 14.25 18V16C14.25 15.4033 14.013 14.831 13.591 14.409C13.1691 13.9871 12.5968 13.75 12 13.75C11.4033 13.75 10.831 13.9871 10.409 14.409C9.98708 14.831 9.75003 15.4033 9.75003 16V18C9.75003 19.5188 8.51881 20.75 7.00003 20.75H5.56159C4.3077 20.75 3.16292 19.8827 2.9843 18.5638C2.86345 17.6715 2.75003 16.4485 2.75003 15C2.75003 14.8527 2.74953 14.7066 2.74903 14.5617C2.74459 13.2752 2.74044 12.0734 3.09118 10.8556C3.49114 9.46686 4.32843 8.11094 5.9697 6.46967C7.48785 4.95152 9.17358 3.79678 10.305 3.10181Z"/>
                  </symbol><symbol viewBox="0 0 18 19" id="suitcase" xmlns="http://www.w3.org/2000/svg">
<path fill-rule="evenodd" clip-rule="evenodd" d="M6.66455 0.658164C7.40822 0.301357 8.30708 0.25 9 0.25C9.69292 0.25 10.5918 0.301357 11.3354 0.658164C11.7226 0.843916 12.0881 1.12168 12.353 1.53183C12.6188 1.94351 12.75 2.43735 12.75 3V3.40851C13.0929 3.4422 13.5312 3.48866 13.9827 3.54555C14.4755 3.60767 14.997 3.68382 15.4303 3.77172C15.6459 3.81545 15.8547 3.86506 16.0337 3.92182C16.1784 3.96774 16.4208 4.05214 16.605 4.21335C16.7457 4.33644 16.8396 4.48576 16.9017 4.60194C16.9684 4.7267 17.0253 4.86524 17.0748 5.00676C17.1739 5.28997 17.2619 5.63887 17.3389 6.02868C17.4937 6.81158 17.6175 7.8261 17.6873 8.95364C17.7275 9.60188 17.75 10.2912 17.75 11C17.75 12.5879 17.6368 14.0835 17.464 15.2425C17.3779 15.8203 17.2747 16.3302 17.1577 16.7327C17.0994 16.9333 17.0333 17.1227 16.9571 17.2868C16.8887 17.4341 16.7797 17.6338 16.605 17.7867C16.4376 17.9331 16.2275 18.0197 16.0751 18.0739C15.9012 18.1358 15.697 18.1906 15.4754 18.2399C15.0305 18.3389 14.4605 18.4276 13.8073 18.5021C12.4978 18.6516 10.8025 18.75 9 18.75C7.19753 18.75 5.50222 18.6516 4.19273 18.5021C3.53951 18.4276 2.9695 18.3389 2.52464 18.2399C2.30301 18.1906 2.09882 18.1358 1.9249 18.0739C1.77249 18.0197 1.56235 17.9331 1.39501 17.7867C1.22027 17.6338 1.11134 17.4341 1.04289 17.2868C0.966663 17.1227 0.900565 16.9333 0.842286 16.7327C0.725333 16.3302 0.622098 15.8203 0.535974 15.2425C0.363201 14.0835 0.25 12.5879 0.25 11C0.25 10.2912 0.272558 9.60187 0.312707 8.95364C0.382542 7.8261 0.506308 6.81158 0.661074 6.02868C0.738133 5.63887 0.826071 5.28997 0.925167 5.00677C0.974688 4.86524 1.03161 4.7267 1.09828 4.60194C1.16036 4.48576 1.25433 4.33644 1.39501 4.21335C1.57925 4.05214 1.8216 3.96774 1.96634 3.92182C2.14526 3.86506 2.35409 3.81545 2.56965 3.77172C3.00302 3.68382 3.52447 3.60767 4.01733 3.54555C4.46875 3.48866 4.90709 3.4422 5.25 3.40851V3C5.25 2.43735 5.38123 1.94351 5.64705 1.53183C5.91188 1.12168 6.27741 0.843916 6.66455 0.658164ZM6.75 3.30113C7.46452 3.26834 8.22194 3.25 9 3.25C9.77806 3.25 10.5355 3.26834 11.25 3.30113V3C11.25 2.67513 11.1766 2.47521 11.0928 2.34548C11.0081 2.21423 10.8791 2.10293 10.6866 2.01056C10.2709 1.81112 9.66978 1.75 9 1.75C8.33022 1.75 7.72909 1.81112 7.31343 2.01056C7.12091 2.10293 6.99194 2.21423 6.90719 2.34548C6.82343 2.47521 6.75 2.67513 6.75 3V3.30113ZM11.9457 4.84128C11.0419 4.78383 10.0406 4.75 9 4.75C7.9594 4.75 6.95808 4.78383 6.05431 4.84128L6.0509 4.84156L6.02137 4.84401L5.90692 4.85383C5.80767 4.86251 5.66493 4.87538 5.49208 4.89204C5.14582 4.9254 4.68136 4.97373 4.20489 5.03378C3.72553 5.09419 3.24698 5.16488 2.86785 5.24178C2.67716 5.28046 2.52661 5.31775 2.41994 5.35159C2.4117 5.35421 2.40404 5.35671 2.39694 5.35908C2.38113 5.39444 2.36221 5.44153 2.341 5.50217C2.2739 5.69393 2.20217 5.96764 2.1326 6.31957C1.99469 7.01719 1.87777 7.95762 1.81069 9.03265C1.80713 9.24386 1.89878 9.47837 2.20703 9.74789C2.53183 10.0319 3.04769 10.3049 3.74593 10.5389C4.95728 10.9447 6.56554 11.1832 8.25 11.2379V10C8.25 9.58579 8.58579 9.25 9 9.25C9.41421 9.25 9.75 9.58579 9.75 10V11.2379C11.4345 11.1832 13.0427 10.9447 14.2541 10.5389C14.9523 10.3049 15.4682 10.0319 15.793 9.74789C16.1012 9.47838 16.1929 9.24387 16.1893 9.03265C16.1222 7.95762 16.0053 7.01719 15.8674 6.31958C15.7978 5.96765 15.7261 5.69393 15.659 5.50218C15.6378 5.44154 15.6189 5.39444 15.6031 5.35908C15.596 5.35671 15.5883 5.35421 15.5801 5.35159C15.4734 5.31775 15.3228 5.28046 15.1322 5.24178C14.753 5.16488 14.2745 5.09419 13.7951 5.03378C13.3186 4.97373 12.8542 4.9254 12.5079 4.89204C12.3351 4.87538 12.1923 4.86251 12.0931 4.85383L11.9786 4.84401L11.9491 4.84156L11.9457 4.84128ZM15.5662 5.28742C15.5662 5.28737 15.5669 5.2883 15.5682 5.29033C15.5668 5.28849 15.5662 5.28747 15.5662 5.28742ZM16.2489 11.2689C15.8044 11.5479 15.2849 11.7754 14.7306 11.9611C13.3305 12.4303 11.5505 12.6838 9.75 12.7386V14C9.75 14.4142 9.41421 14.75 9 14.75C8.58579 14.75 8.25 14.4142 8.25 14V12.7386C6.44949 12.6838 4.66954 12.4303 3.2694 11.9611C2.71508 11.7754 2.19559 11.5479 1.75113 11.2688C1.76306 12.6899 1.86851 14.0079 2.01958 15.0214C2.10012 15.5617 2.19133 15.9997 2.28271 16.3142C2.32781 16.4694 2.36871 16.5797 2.40157 16.6511C2.40938 16.6541 2.41801 16.6573 2.42753 16.6607C2.52271 16.6945 2.66227 16.7339 2.85036 16.7757C3.22494 16.859 3.73827 16.9405 4.36282 17.0118C5.60889 17.154 7.24691 17.25 9 17.25C10.7531 17.25 12.3911 17.154 13.6372 17.0118C14.2617 16.9405 14.7751 16.859 15.1496 16.7757C15.3377 16.7339 15.4773 16.6945 15.5725 16.6607C15.582 16.6573 15.5906 16.6541 15.5984 16.6511C15.6313 16.5797 15.6722 16.4694 15.7173 16.3142C15.8087 15.9997 15.8999 15.5617 15.9804 15.0214C16.1315 14.0079 16.2369 12.6899 16.2489 11.2689ZM2.43379 5.28742C2.43381 5.28747 2.43315 5.28852 2.43177 5.29043C2.43309 5.28833 2.43378 5.28738 2.43379 5.28742Z"/>
</symbol></svg>