<svg width="21" height="21" viewBox="0 0 21 21" fill="none" xmlns="http://www.w3.org/2000/svg">
   <path fill-rule="evenodd" clip-rule="evenodd" d="M10.5 1.875C5.73654 1.875 1.875 5.73654 1.875 10.5C1.875 15.2635 5.73654 19.125 10.5 19.125C15.2635 19.125 19.125 15.2635 19.125 10.5C19.125 5.73654 15.2635 1.875 10.5 1.875ZM0.375 10.5C0.375 4.90812 4.90812 0.375 10.5 0.375C16.0919 0.375 20.625 4.90812 20.625 10.5C20.625 16.0919 16.0919 20.625 10.5 20.625C4.90812 20.625 0.375 16.0919 0.375 10.5ZM10.5 4.54167C10.9142 4.54167 11.25 4.87745 11.25 5.29167V12.5833C11.25 12.9975 10.9142 13.3333 10.5 13.3333C10.0858 13.3333 9.75 12.9975 9.75 12.5833V5.29167C9.75 4.87745 10.0858 4.54167 10.5 4.54167ZM10.5 14.9479C10.9142 14.9479 11.25 15.2837 11.25 15.6979V15.7083C11.25 16.1225 10.9142 16.4583 10.5 16.4583C10.0858 16.4583 9.75 16.1225 9.75 15.7083V15.6979C9.75 15.2837 10.0858 14.9479 10.5 14.9479Z" fill="#2E9CB5"/>
</svg>
