<svg width="21" height="21" viewBox="0 0 21 21" fill="none" xmlns="http://www.w3.org/2000/svg">
   <path fill-rule="evenodd" clip-rule="evenodd" d="M10.5 1.875C5.73654 1.875 1.875 5.73654 1.875 10.5C1.875 15.2635 5.73654 19.125 10.5 19.125C15.2635 19.125 19.125 15.2635 19.125 10.5C19.125 5.73654 15.2635 1.875 10.5 1.875ZM0.375 10.5C0.375 4.90812 4.90812 0.375 10.5 0.375C16.0919 0.375 20.625 4.90812 20.625 10.5C20.625 16.0919 16.0919 20.625 10.5 20.625C4.90812 20.625 0.375 16.0919 0.375 10.5ZM6.625 7.375C6.625 6.96079 6.96079 6.625 7.375 6.625H7.38542C7.79963 6.625 8.13542 6.96079 8.13542 7.375C8.13542 7.78921 7.79963 8.125 7.38542 8.125H7.375C6.96079 8.125 6.625 7.78921 6.625 7.375ZM12.875 7.375C12.875 6.96079 13.2108 6.625 13.625 6.625H13.6354C14.0496 6.625 14.3854 6.96079 14.3854 7.375C14.3854 7.78921 14.0496 8.125 13.6354 8.125H13.625C13.2108 8.125 12.875 7.78921 12.875 7.375ZM5.88333 11.9833C6.2147 11.7348 6.6848 11.802 6.93333 12.1333L6.33333 12.5833C6.93333 12.1333 6.93316 12.1331 6.933 12.1329L6.9327 12.1325L6.9322 12.1318L6.93955 12.1412C6.9474 12.1511 6.96094 12.1679 6.98004 12.1907C7.01829 12.2363 7.07852 12.3053 7.15966 12.3899C7.32254 12.5599 7.56602 12.7892 7.88123 13.0184C8.51455 13.479 9.40456 13.9167 10.5 13.9167C11.5954 13.9167 12.4854 13.479 13.1188 13.0184C13.434 12.7892 13.6775 12.5599 13.8403 12.3899C13.9215 12.3053 13.9817 12.2363 14.02 12.1907C14.0391 12.1679 14.0526 12.1511 14.0604 12.1412L14.0678 12.1318L14.0673 12.1325L14.067 12.1329C14.3156 11.8019 14.7854 11.7349 15.1167 11.9833C15.448 12.2319 15.5152 12.702 15.2667 13.0333L14.6667 12.5833C15.2667 13.0333 15.2665 13.0336 15.2663 13.0338L15.2659 13.0344L15.265 13.0356L15.2627 13.0386L15.2563 13.0469L15.2365 13.0723C15.2202 13.0929 15.1976 13.1208 15.1689 13.155C15.1116 13.2234 15.0294 13.3171 14.9233 13.4278C14.7119 13.6484 14.402 13.94 14.001 14.2316C13.202 14.8126 12.0087 15.4167 10.5 15.4167C8.99127 15.4167 7.79795 14.8126 6.99897 14.2316C6.59804 13.94 6.28814 13.6484 6.07667 13.4278C5.97063 13.3171 5.88845 13.2234 5.83108 13.155C5.80237 13.1208 5.7798 13.0929 5.76348 13.0723L5.74369 13.0469L5.73733 13.0386L5.73504 13.0356L5.73411 13.0344L5.7337 13.0338C5.73352 13.0336 5.73334 13.0333 6.3114 12.5998L5.73333 13.0333C5.48481 12.702 5.55196 12.2319 5.88333 11.9833Z" fill="#74DA06"/>
</svg>
