<svg width="171" height="79" viewBox="0 0 171 79" fill="none" xmlns="http://www.w3.org/2000/svg">
	<path d="M88.3392 78.121H81.9806V43.083L10.445 13.3975L0 0L57.6804 17.2571L85.4527 26.7949L171 0L158.737 14.3088L89.2463 43.083L88.3392 78.121Z" fill="white" />
	<path d="M45.6445 78.1212H54.5019L85.4534 26.7952L115.819 78.1212H125.126L85.4534 9.08444L45.6445 78.1212Z" fill="#87EE40" />
	<path d="M20.666 23.5537L30.6574 36.7244L52.4587 43.0829L45.6425 31.7266L20.666 23.5537Z" fill="#87EE40" />
	<path d="M50.6408 49.961L39.7422 46.7817L42.9215 64.4925L50.6408 49.961Z" fill="#87EE40" />
	<path d="M149.507 23.5537L139.919 37.0213L118.324 44.0478L124.786 32.4895L149.507 23.5537Z" fill="#87EE40" />
	<path d="M120.338 50.3075L131.133 46.7983L128.498 64.5998L120.338 50.3075Z" fill="#87EE40" />
	<path d="M59.4629 78.1208H74.7118L80.5797 55.6392L59.4629 78.1208Z" fill="#87EE40" />
	<path d="M111.718 78.1208H96.4692L90.6055 55.6392L111.718 78.1208Z" fill="#87EE40" />
</svg>
